<?xml version="1.0" encoding="utf-8"?>
<!-- Generator: Adobe Illustrator 24.0.2, SVG Export Plug-In . SVG Version: 6.00 Build 0)  -->
<svg version="1.1" id="Capa_1" xmlns="http://www.w3.org/2000/svg" xmlns:xlink="http://www.w3.org/1999/xlink" x="0px" y="0px"
	 viewBox="0 0 517.3 636" style="enable-background:new 0 0 517.3 636;" xml:space="preserve">
<style type="text/css">
	.st0{clip-path:url(#SVGID_2_);}
	.st1{fill:#2D2D32;}
	.st2{fill:#FF5047;}
	.st3{fill:#F3E7D7;}
	.st4{fill:#E2D7C9;}
	.st5{fill:#FFF2E2;}
	.st6{fill:#FFFFFF;stroke:#000000;stroke-width:14;stroke-linejoin:round;}
	.st7{fill:#FCCFBF;}
	.st8{opacity:0.4;fill:#F9BDBF;enable-background:new    ;}
	.st9{fill:#FCC8B5;}
	.st10{fill:none;stroke:#333333;stroke-width:2;stroke-linecap:round;stroke-linejoin:round;}
	.st11{opacity:0.3;fill:#FC869E;enable-background:new    ;}
	.st12{fill:#FFFFFF;}
	.st13{clip-path:url(#SVGID_3_);}
	.st14{fill:#333333;}
	.st15{fill:#0C0B0B;}
	.st16{fill:none;stroke:#EAE5E4;stroke-linecap:round;stroke-linejoin:round;}
	.st17{fill:#1C1B1B;}
	.st18{opacity:0.5;fill:#FDDDCE;enable-background:new    ;}
</style>
<g>
	<defs>
		<circle id="SVGID_1_" cx="257.7" cy="322.7" r="256.4"/>
	</defs>
	<clipPath id="SVGID_2_">
		<use xlink:href="#SVGID_1_"  style="overflow:visible;"/>
	</clipPath>
	<g class="st0">
		<rect x="0.2" y="63.5" class="st1" width="517" height="530.9"/>
		
			<ellipse transform="matrix(0.7071 -0.7071 0.7071 0.7071 -343.4811 359.2036)" class="st2" cx="261.9" cy="594.2" rx="242.7" ry="242.7"/>
		<g>
			
				<ellipse transform="matrix(0.7755 -0.6313 0.6313 0.7755 -468.2523 334.5492)" class="st3" cx="236.3" cy="825.7" rx="26.2" ry="26.2"/>
			
				<ellipse transform="matrix(0.168 -0.9858 0.9858 0.168 -581.4015 878.3354)" class="st3" cx="229.7" cy="783.6" rx="28.1" ry="28.1"/>
			<circle class="st3" cx="448" cy="775.9" r="28.7"/>
			<path class="st4" d="M279.9,787.8c-10-2.9-15.8-13.3-13-23.4c1.4-4.8,4.6-8.8,8.9-11.3c-12.5,0.6-22.2,11.2-21.6,23.8
				c0.6,12.5,11.2,22.2,23.8,21.6c9.5-0.5,17.6-6.7,20.5-15.7C293.7,787.8,286.6,789.7,279.9,787.8z"/>
			<path class="st5" d="M288.5,755.4c5.5-7.3,15.9-8.7,23.2-3.1c3.5,2.7,5.8,6.7,6.4,11.1c3.5-10.4-2-21.7-12.4-25.2
				c-10.4-3.5-21.7,2-25.2,12.4c-2.7,7.8-0.2,16.4,6.1,21.7C284.1,766.7,284.8,760.2,288.5,755.4z"/>
			<path class="st6" d="M428.1,584.4l0.2,0.8c-0.7-0.6-1.5-1.1-2.2-1.7l2.8-0.7C428.3,583.2,428,583.8,428.1,584.4L428.1,584.4z"/>
			<path class="st3" d="M189.1,248.3c-0.3-3.3-17.5-66.4-51.7-89.6s20.1-72.9,60.9-0.9s1.5,92.6,1.5,92.6L189.1,248.3z"/>
			<path class="st7" d="M201.3,218.9c-0.6-2-17.7-43.4-37.2-62.5s-0.9-42.2,28.6,8s14,57.3,14,57.3L201.3,218.9z"/>
			<path class="st3" d="M153.3,262.2c-2.8-1.7-51.4-45.5-56.6-86.4c-5.3-40.9-74.2-15-28.4,53.8s82,43.1,82,43.1L153.3,262.2z"/>
			<path class="st7" d="M121.5,259.9c-1.5-1.4-30.8-35.3-39.1-61.3s-37.2-19.8-5.8,29.2s44.9,38.2,44.9,38.2L121.5,259.9z"/>
			
				<ellipse transform="matrix(0.5313 -0.8472 0.8472 0.5313 -435.6707 450.0388)" class="st3" cx="188.9" cy="618.8" rx="26.2" ry="26.2"/>
			
				<ellipse transform="matrix(0.9391 -0.3436 0.3436 0.9391 -187.0627 97.7165)" class="st3" cx="182.2" cy="576.7" rx="28.1" ry="28.1"/>
			<circle class="st3" cx="171.7" cy="530.8" r="28.2"/>
			<circle class="st3" cx="161.1" cy="491.3" r="28.2"/>
			<circle class="st3" cx="152" cy="446.6" r="27.6"/>
			<circle class="st3" cx="141.4" cy="405" r="29.2"/>
			
				<ellipse transform="matrix(0.8446 -0.5353 0.5353 0.8446 -175.2637 125.8396)" class="st3" cx="129.2" cy="364.9" rx="26.6" ry="26.6"/>
			
				<ellipse transform="matrix(0.8446 -0.5353 0.5353 0.8446 -179.5664 140.8285)" class="st3" cx="152.8" cy="379.8" rx="26.6" ry="26.6"/>
			<path class="st3" d="M174.9,339.6c3.3,14.3-5.7,28.6-20,31.9c-14.3,3.3-28.6-5.7-31.9-20c-3.3-14.3,5.7-28.6,20-31.9c0,0,0,0,0,0
				C157.3,316.4,171.6,325.3,174.9,339.6z"/>
			<circle class="st3" cx="122.6" cy="323" r="28.4"/>
			<circle class="st3" cx="167.3" cy="296.6" r="28.5"/>
			
				<ellipse transform="matrix(0.8446 -0.5353 0.5353 0.8446 -128.8341 118.222)" class="st3" cx="139.3" cy="281.1" rx="26.8" ry="26.8"/>
			<circle class="st3" cx="172.1" cy="251.8" r="29.2"/>
			<circle class="st3" cx="401.5" cy="567.1" r="28.7"/>
			<circle class="st3" cx="391" cy="527" r="27.1"/>
			<path class="st3" d="M350.8,493.8c8.1,12.7,24.9,16.4,37.6,8.3c12.7-8.1,16.4-24.9,8.3-37.6s-24.9-16.4-37.6-8.3
				c-12.6,8.1-16.4,24.8-8.4,37.4L350.8,493.8z"/>
			<circle class="st3" cx="362.5" cy="468.5" r="26.2"/>
			<circle class="st3" cx="358" cy="442.5" r="27.6"/>
			
				<ellipse transform="matrix(0.984 -0.1784 0.1784 0.984 -65.9817 67.7791)" class="st3" cx="343.9" cy="400.8" rx="28.8" ry="28.8"/>
			<circle class="st3" cx="219.1" cy="737.8" r="28.2"/>
			<circle class="st3" cx="208.6" cy="698.3" r="28.2"/>
			<circle class="st3" cx="199.5" cy="653.6" r="27.6"/>
			<circle class="st3" cx="438.4" cy="734" r="27.1"/>
			<circle class="st3" cx="428.6" cy="692.3" r="26.2"/>
			<circle class="st3" cx="416.8" cy="650" r="27.5"/>
			<circle class="st3" cx="410" cy="607.5" r="28.8"/>
			
				<ellipse transform="matrix(0.8446 -0.5353 0.5353 0.8446 -123.665 264.3289)" class="st3" cx="393.6" cy="345.2" rx="27.4" ry="27.4"/>
			
				<ellipse transform="matrix(0.8446 -0.5353 0.5353 0.8446 -105.0777 254.5424)" class="st3" cx="386" cy="308.3" rx="26.7" ry="26.7"/>
			<path class="st3" d="M271.1,248.5c3.3,14.5,17.7,23.5,32.2,20.2s23.5-17.7,20.2-32.2c-3.3-14.5-17.7-23.5-32.2-20.2c0,0,0,0,0,0
				l0,0C276.8,219.7,267.8,234.1,271.1,248.5z"/>
			
				<ellipse transform="matrix(0.8446 -0.5353 0.5353 0.8446 -84.9344 171.1856)" class="st3" cx="252.5" cy="231.9" rx="28.5" ry="28.5"/>
			<path class="st3" d="M184.4,238.8c3.2,14,17.1,22.7,31.1,19.5c14-3.2,22.7-17.1,19.5-31.1c-3.2-14-17.1-22.7-31.1-19.5
				C190,210.9,181.2,224.8,184.4,238.8z"/>
			
				<ellipse transform="matrix(0.9747 -0.2234 0.2234 0.9747 -68.3139 68.2816)" class="st3" cx="267.7" cy="336.1" rx="88.8" ry="113.7"/>
			
				<rect x="190.8" y="365.9" transform="matrix(0.9747 -0.2234 0.2234 0.9747 -124.6639 80.3398)" class="st3" width="203.9" height="450.7"/>
			
				<ellipse transform="matrix(0.9747 -0.2234 0.2234 0.9747 -56.9159 58.8355)" class="st7" cx="231.6" cy="281" rx="23.9" ry="21.3"/>
			
				<ellipse transform="matrix(0.9747 -0.2234 0.2234 0.9747 -52.8869 65.4088)" class="st7" cx="262.7" cy="266.5" rx="21.3" ry="18.9"/>
			
				<ellipse transform="matrix(0.9747 -0.2234 0.2234 0.9747 -71.0165 68.4247)" class="st7" cx="267" cy="348.1" rx="88.4" ry="93.9"/>
			<path class="st8" d="M297.5,429.4c-2.7,0.6-5.2,1.8-7.3,3.6c-2.1-7.5-10.5-11.9-19.1-10c-4,0.9-7.6,3.2-10.1,6.4
				c-4-2.8-9.1-3.8-13.9-2.6l-0.6,0.2c0-0.5-0.1-1-0.2-1.5c-1.7-7.3-9.7-11.8-18-10c0-0.6-0.1-1.3-0.3-1.9
				c-1.8-6.4-7.7-10.7-14.4-10.4c0.2-1.4,0.1-2.8-0.3-4.2c-1-4.1-3.9-7.4-7.8-9c1.8-3,2.4-6.5,1.6-9.9c-1-3.9-3.6-7.3-7.2-9.1
				c4.3-5.5,3.3-13.3-2.1-17.6c-0.6-0.5-1.2-0.9-1.9-1.2c2.4-3,3.4-7,2.5-10.8c-0.5-2.3-1.7-4.3-3.3-6c2.6-3.3,3.7-7.5,2.8-11.6
				c-0.4-1.6-1.1-3.2-2-4.5c6.8-2.7,10.9-9.3,9.4-15.9l-0.1-0.4c6.2-2.3,10-8.6,9.2-15.2c7.5-2.3,12.3-9.5,10.7-16.4
				c-1.7-7.5-9.9-11.8-18.1-9.9c-8.2,1.9-13.3,8.9-12.1,16.1c-7.5,2.3-12.3,9.5-10.7,16.4c0,0.2,0.1,0.4,0.1,0.5
				c-6.4,2.4-10.1,9-8.9,15.7c0.3,1.3,0.8,2.5,1.5,3.6c-7.7,2.7-12.5,10.1-10.8,17.3c0.7,2.8,2.3,5.4,4.6,7.2
				c-3.9,5.7-2.5,13.5,3.2,17.4c0.4,0.3,0.8,0.5,1.2,0.7c-2.4,3.1-3.3,7-2.5,10.8c0.8,3.4,2.9,6.2,5.9,8c-5,5.5-4.6,14.1,0.9,19.2
				c1.4,1.3,3.2,2.3,5,2.9c-1.3,2.6-1.7,5.6-1.1,8.5c1.7,6.4,7.7,10.6,14.2,10.3c-0.2,1.4-0.1,2.9,0.2,4.3c1.7,7.4,9.7,11.8,18,10
				c0,0.6,0.1,1.3,0.3,1.9c1.7,7.4,9.7,11.8,18,10c0,0.7,0.1,1.5,0.3,2.2c1.8,7.9,10.4,12.6,19.3,10.6c4-0.9,7.6-3.2,10.1-6.4
				c4,2.8,9.1,3.8,13.9,2.6c2.7-0.6,5.2-1.8,7.3-3.6c2.1,7.5,10.5,11.9,19.1,10s14.6-10,12.8-17.9
				C314.9,432.1,306.4,427.5,297.5,429.4z"/>
			<path class="st3" d="M192.2,363.6c1.7,7.4-3.7,14.9-11.9,16.7s-16.2-2.5-18-9.8c-1.8-7.3,3.7-14.9,11.9-16.7
				C182.5,352,190.5,356.2,192.2,363.6z"/>
			<path class="st3" d="M188.4,344.5c1.7,7.3-3.7,14.9-11.9,16.7c-8.3,1.8-16.3-2.5-18-9.8s3.6-14.9,11.9-16.7
				C178.7,332.8,186.7,337.2,188.4,344.5z"/>
			
				<ellipse transform="matrix(0.9747 -0.2234 0.2234 0.9747 -64.664 48.0795)" class="st3" cx="180.2" cy="309.9" rx="15.4" ry="13.6"/>
			
				<ellipse transform="matrix(0.9747 -0.2234 0.2234 0.9747 -69.496 46.7365)" class="st3" cx="171.8" cy="330.6" rx="16.4" ry="14.6"/>
			<path class="st3" d="M204.1,290.2c1.7,7.4-3.7,14.9-12,16.8s-16.4-2.5-18.1-9.9c-1.7-7.4,3.7-14.9,12-16.8
				C194.3,278.3,202.3,282.8,204.1,290.2z"/>
			
				<ellipse transform="matrix(0.9747 -0.2234 0.2234 0.9747 -57.0089 51.6475)" class="st3" cx="199.8" cy="277.8" rx="15.4" ry="13.7"/>
			<path class="st3" d="M203.2,402.2c-1.7-7.4-9.9-11.8-18.1-9.9c-8.2,1.9-13.7,9.4-12,16.8c1.7,7.4,9.8,11.8,18.1,9.9
				C199.5,417.1,204.9,409.5,203.2,402.2z"/>
			<path class="st3" d="M236,428.7c-1.7-7.5-9.9-11.8-18.2-10c-8.3,1.8-13.7,9.5-12,16.9s9.9,11.8,18.2,9.9S237.7,436.1,236,428.7z"
				/>
			
				<ellipse transform="matrix(0.9747 -0.2234 0.2234 0.9747 -88.7546 55.8768)" class="st3" cx="202.6" cy="420.3" rx="15.5" ry="13.8"/>
			<path class="st3" d="M280.1,436.7c-1.8-7.9-10.4-12.6-19.3-10.6c-8.9,2-14.6,10.1-12.8,17.9c1.8,7.9,10.4,12.6,19.3,10.6
				S282,444.6,280.1,436.7z"/>
			<path class="st3" d="M272.1,449.5c-1.8-7.9-10.4-12.6-19.3-10.6c-8.9,2-14.6,10-12.8,17.9s10.4,12.6,19.3,10.6
				C268.3,465.3,274,457.3,272.1,449.5z"/>
			
				<ellipse transform="matrix(0.9747 -0.2234 0.2234 0.9747 -92.4597 76.1816)" class="st3" cx="290.5" cy="446.8" rx="16.4" ry="14.6"/>
			<path class="st3" d="M197.1,383.2c-1.8-7.9-10.4-12.6-19.3-10.5c-8.9,2.1-14.6,10-12.7,17.8c1.9,7.8,10.4,12.6,19.3,10.6
				S198.9,391.1,197.1,383.2z"/>
			
				<ellipse transform="matrix(0.9747 -0.2234 0.2234 0.9747 -93.1544 64.847)" class="st3" cx="240.1" cy="444.2" rx="16.4" ry="14.6"/>
			<path class="st4" d="M213.3,558.8c-8.9,5.2-20.3,2.3-25.5-6.6c-2.6-4.3-3.3-9.5-1.9-14.4c-8,9.3-7,23.4,2.4,31.4
				c9.3,8,23.4,7,31.4-2.4c5.9-6.9,7.1-16.7,2.9-24.8C222.8,548.9,219.2,555.3,213.3,558.8z"/>
			<path class="st4" d="M309,546.8c-9.8,3.2-20.3-2.2-23.4-12c-1.6-4.8-1.1-10.1,1.3-14.5c-9.9,7.3-12,21.3-4.6,31.2
				c7.3,9.9,21.3,12,31.2,4.6c7.3-5.4,10.6-14.8,8.3-23.6C320.4,539.3,315.6,544.8,309,546.8z"/>
			<path class="st4" d="M218.1,517.8c-8.9,0.6-16.7-6.1-17.3-15c-0.3-4.4,1.2-8.8,4.2-12.1c-10,4.1-14.8,15.5-10.7,25.5
				c4.1,10,15.5,14.8,25.5,10.7c7.5-3,12.3-10.4,12.2-18.4C229.4,513.9,224,517.5,218.1,517.8z"/>
			<path class="st4" d="M211.9,446.7c-8.9,0.6-16.7-6.1-17.3-15c-0.3-4.4,1.2-8.8,4.2-12.1c-10,4-14.9,15.4-10.9,25.4
				c4,10,15.4,14.9,25.4,10.9c7.6-3,12.5-10.4,12.3-18.6C223.2,442.7,217.9,446.3,211.9,446.7z"/>
			<path class="st4" d="M356.5,484.6c-6.3,8.4-18.3,10.1-26.7,3.8c-4.1-3.1-6.8-7.6-7.4-12.7c-4,12,2.6,25,14.6,29s25-2.6,29-14.6
				c3-9,0.1-18.9-7.2-24.9C361.6,471.6,360.7,479,356.5,484.6z"/>
			<path class="st4" d="M239.6,623.7c-6.7,7.2-18,7.6-25.1,0.9c-3.5-3.3-5.5-7.8-5.6-12.5c-4.9,10.7-0.2,23.4,10.6,28.3
				c10.7,4.9,23.4,0.2,28.3-10.6c3.7-8.1,2-17.6-4.2-23.9C245.6,612.1,244.1,618.9,239.6,623.7z"/>
			<path class="st4" d="M330.5,645.3c-10.1,0.7-18.9-6.9-19.6-17c-0.4-4.9,1.3-9.7,4.5-13.4c-11.3,4.7-16.6,17.6-11.9,28.9
				c4.7,11.3,17.6,16.6,28.9,11.9c8.5-3.5,13.9-12,13.6-21.2C343.1,640.7,337.2,644.8,330.5,645.3z"/>
			<path class="st4" d="M365.4,593.1c-5.1-8.2-2.5-19,5.7-24c4-2.5,8.8-3.2,13.4-2.1c-8.9-7.5-22.2-6.3-29.6,2.6
				c-7.5,8.9-6.3,22.2,2.6,29.6c6.7,5.6,16.2,6.5,23.8,2.2C374.8,601.7,368.8,598.6,365.4,593.1z"/>
			<path class="st4" d="M256.4,710.3c-3.1,9.5-13.2,14.7-22.7,11.7c-4.6-1.5-8.4-4.7-10.6-9.1c0.1,12,10,21.7,22,21.5
				c12-0.1,21.7-10,21.5-22c-0.1-9-5.8-17.1-14.2-20.2C256.9,697.1,258.5,704,256.4,710.3z"/>
			<path class="st4" d="M350.1,711.2c-3,9.3-12.9,14.4-22.1,11.4c-4.5-1.4-8.2-4.6-10.4-8.8c0.1,11.7,9.7,21.1,21.4,20.9
				c11.7-0.1,21.1-9.7,20.9-21.4c-0.1-8.8-5.6-16.6-13.9-19.7C350.5,698.3,352.1,705.1,350.1,711.2z"/>
			<path class="st4" d="M403.6,678.4c-9.1,0.9-17.3-5.7-18.3-14.9c-0.5-4.4,0.9-8.9,3.7-12.3c-10.1,4.6-14.5,16.5-10,26.5
				c4.6,10.1,16.5,14.5,26.5,10c7.6-3.4,12.2-11.2,11.7-19.5C415,673.8,409.7,677.7,403.6,678.4z"/>
			<path class="st4" d="M402.9,749.4c-9.6-1.2-16.5-9.9-15.3-19.6c0.6-4.6,3-8.9,6.6-11.8c-11.4,2.4-18.8,13.5-16.4,25
				c2.4,11.4,13.5,18.8,25,16.4c8.6-1.8,15.2-8.7,16.6-17.4C415.6,747.3,409.3,750.1,402.9,749.4z"/>
			<path class="st5" d="M315.2,677.3c8.4,0.5,14.7,7.8,14.2,16.1c-0.3,4.1-2.2,7.9-5.3,10.6c9.7-2.5,15.6-12.5,13-22.2
				c-2.5-9.7-12.5-15.6-22.2-13c-7.3,1.9-12.7,8.1-13.5,15.6C304.4,679.7,309.7,677,315.2,677.3z"/>
			<path class="st5" d="M216.1,689.2c5.2-6.2,14.4-7.1,20.6-1.9c3,2.5,4.9,6.1,5.2,10c3.5-9.1-1-19.2-10-22.8
				c-9.1-3.5-19.2,1-22.8,10c-2.6,6.8-0.8,14.6,4.6,19.4C211.8,699,212.7,693.4,216.1,689.2z"/>
			<path class="st5" d="M420,726.3c8.1-0.1,14.8,6.3,14.9,14.4c0.1,3.9-1.4,7.7-4.1,10.4c9.2-3.2,13.9-13.3,10.7-22.5
				c-3.2-9.2-13.3-13.9-22.5-10.7c-6.9,2.4-11.5,8.9-11.7,16.2C409.7,729.4,414.6,726.4,420,726.3z"/>
			<path class="st5" d="M401,612.8c7.1,4.4,9.2,13.7,4.8,20.8c-2.1,3.4-5.6,5.9-9.5,6.8c9.8,2.4,19.6-3.7,22-13.4
				c2.4-9.8-3.7-19.6-13.4-22c-7.4-1.8-15.1,1.2-19.4,7.5C390.3,609.7,396.3,609.9,401,612.8z"/>
			<path class="st5" d="M316.5,595.7c8.5,2.7,13.3,11.8,10.6,20.3c-1.3,4.3-4.4,7.8-8.4,9.7c10.8-0.1,19.5-9,19.3-19.8
				c-0.1-10.8-9-19.5-19.8-19.3c-8.1,0.1-15.3,5.2-18.1,12.8C304.6,595.3,310.8,593.8,316.5,595.7z"/>
			<path class="st5" d="M278.5,649.9c2.7,7.5-1.2,15.7-8.7,18.4c-3.6,1.3-7.6,1.1-11.1-0.6c5.9,7.5,16.7,8.8,24.2,2.9
				c7.5-5.9,8.8-16.7,2.9-24.2c-4.4-5.7-11.9-8-18.8-5.8C272.4,641.3,276.7,644.9,278.5,649.9z"/>
			<path class="st5" d="M164.6,484c-0.5-8.4,5.9-15.7,14.4-16.2c4.1-0.2,8.1,1.2,11.2,3.9c-3.8-9.4-14.5-14-24-10.2
				c-9.4,3.8-14,14.5-10.2,24c2.9,7.1,9.8,11.7,17.4,11.5C168.3,494.6,164.9,489.6,164.6,484z"/>
			<path class="st5" d="M159.9,402.4c-0.5-8.5,6-15.7,14.4-16.2c4.1-0.2,8.1,1.2,11.2,3.9c-3.8-9.4-14.5-14.1-23.9-10.3
				c-9.4,3.8-14.1,14.5-10.3,23.9c2.8,7.1,9.8,11.8,17.5,11.6C163.7,413,160.3,408,159.9,402.4z"/>
			<path class="st5" d="M349.3,544c-5.5-6.7-4.5-16.6,2.3-22.1c3.2-2.6,7.4-3.9,11.5-3.4c-8.8-5.5-20.5-2.9-26,6
				c-5.5,8.8-2.9,20.5,6,26c6.6,4.2,15.2,3.8,21.4-0.9C358.8,550.6,353,548.5,349.3,544z"/>
			<path class="st5" d="M241.4,571c8.2,3,12.4,12,9.4,20.2c-1.4,4-4.4,7.2-8.2,8.9c10.4,0.3,19.1-7.9,19.4-18.4
				c0.3-10.4-7.9-19.1-18.4-19.4c-7.8-0.2-15,4.4-18,11.7C229.9,570.2,236,569.1,241.4,571z"/>
			<path class="st5" d="M345.5,427.9c8.3-0.6,15.6,5.6,16.2,14c0.3,4-1,8-3.6,11c9.3-3.9,13.7-14.6,9.8-23.9
				c-3.9-9.3-14.6-13.7-23.9-9.8c-7,2.9-11.5,9.9-11.2,17.5C335.1,431.7,340,428.3,345.5,427.9z"/>
			<path class="st5" d="M255.3,495.6c8.8-0.5,16.4,6.2,17,15c0.3,4.2-1.1,8.3-3.9,11.5c9.8-4,14.5-15.3,10.4-25.1
				c-4-9.8-15.3-14.5-25.1-10.4c-7.4,3-12.1,10.3-11.9,18.3C244.3,499.5,249.5,496,255.3,495.6z"/>
			<path class="st3" d="M330.9,433.1c-2.6-11.5-16.5-18.1-30.9-14.8c-14.5,3.3-24.1,15.3-21.4,26.7s16.5,18.1,30.9,14.8
				C323.9,456.5,333.6,444.5,330.9,433.1z"/>
			<path class="st7" d="M324.5,421.2c187.2-35.1,164.5-86.6,151.4-134.5c-17.9-65.4-196.2-26.8-196.2-26.8"/>
			<path class="st7" d="M375.5,266.1c2.2-6.7,6.1-12.7,11.3-17.4c-52-0.6-107.1,11.3-107.1,11.3l44.7,161.3
				c42.7-8,74.5-16.9,97.9-26.3c-4.9-4.2-9.6-8.7-14.2-13.2C376.8,353.1,362.1,309.7,375.5,266.1z"/>
			<path class="st9" d="M475.9,286.8c-7.9-29-47.5-37.5-89.1-38c-5.2,4.7-9.1,10.7-11.3,17.4c-13.4,43.6,1.2,87.1,32.7,115.8
				c4.5,4.5,9.2,8.9,14.2,13.2C501.8,362.8,486,323.7,475.9,286.8z"/>
			<path class="st10" d="M408.3,297.5c0,0,36.4,5.7,43.7,0.1c5.2-6.9,8.1-15.2,8.5-23.7"/>
			<line class="st10" x1="452" y1="297.7" x2="461.6" y2="332.9"/>
			<path class="st10" d="M428.6,342c8.8,11.2,33.3,4.8,33.2-9.3c10.9,6.9,16.6-1.4,14.2-11.7"/>
			<path class="st11" d="M302,380.4c1.1,4.9-10.2,11.7-25.4,15.2c-15.1,3.5-28.3,2.3-29.5-2.6c-1.1-4.9,10.2-11.7,25.4-15.2
				S300.9,375.5,302,380.4z"/>
			
				<ellipse transform="matrix(0.8446 -0.5353 0.5353 0.8446 -110.4404 156.766)" class="st3" cx="214.9" cy="268.7" rx="26.9" ry="26.9"/>
			
				<ellipse transform="matrix(0.8446 -0.5353 0.5353 0.8446 -93.7612 179.7983)" class="st3" cx="262.9" cy="251.4" rx="26.9" ry="26.9"/>
			<path class="st4" d="M147.9,364.6c-8.9,0.6-16.7-6.1-17.3-15.1c-0.3-4.4,1.2-8.8,4.2-12c-10,4-14.9,15.4-10.9,25.4
				c4,10,15.4,14.9,25.4,10.9c7.5-3,12.4-10.4,12.3-18.5C159.1,360.7,153.8,364.3,147.9,364.6z"/>
			<path class="st4" d="M180,287.1c-8.9,0.6-16.7-6.1-17.3-15c-0.3-4.4,1.2-8.8,4.2-12.1c-10,4-14.9,15.4-10.8,25.4
				c4,10,15.4,14.9,25.4,10.8c7.5-3,12.4-10.4,12.3-18.5C191.2,283.2,185.9,286.7,180,287.1z"/>
			<path class="st4" d="M251.4,248.1c-8.9,0.6-16.7-6.1-17.3-15.1c-0.3-4.4,1.2-8.8,4.2-12c-10,4-14.8,15.4-10.8,25.4
				c4,10,15.4,14.8,25.4,10.8c7.5-3,12.4-10.4,12.2-18.5C262.7,244.2,257.4,247.7,251.4,248.1z"/>
			<path class="st5" d="M137.6,315.5c-0.5-8.4,6-15.7,14.4-16.2c4.1-0.2,8.1,1.2,11.1,3.9c-3.8-9.4-14.5-14-23.9-10.2
				c-9.4,3.8-14,14.5-10.2,23.9c2.8,7.1,9.8,11.7,17.4,11.6C141.3,326.2,137.9,321.1,137.6,315.5z"/>
			<path class="st5" d="M186.1,261.5c-0.5-8.5,5.9-15.7,14.4-16.2c4.1-0.2,8.2,1.2,11.2,3.9c-3.8-9.5-14.5-14.1-24-10.3
				c-9.5,3.8-14.1,14.5-10.3,24c2.8,7.2,9.8,11.8,17.5,11.6C189.8,272.1,186.4,267.1,186.1,261.5z"/>
			<circle class="st12" cx="262.2" cy="332.6" r="41.8"/>
			<g>
				<defs>
					<circle id="SVGID_11_" cx="262.2" cy="332.6" r="41.8"/>
				</defs>
				<clipPath id="SVGID_3_">
					<use xlink:href="#SVGID_11_"  style="overflow:visible;"/>
				</clipPath>
				<g class="st13">
					
						<ellipse transform="matrix(0.8446 -0.5353 0.5353 0.8446 -141.7442 182.3675)" class="st14" cx="243.3" cy="335.4" rx="45.1" ry="45.1"/>
				</g>
			</g>
			<path class="st15" d="M169.7,599.9c-1.3,4.8-7.2,31.8,2.9,24.6c4.8,7.2,8.4-0.8,7.5-2.8c3.9,8,6,4.4,5.5-2.2
				c7.1,8.4,2.3-5.6,0.1-7.7c9.4,6.1-6.5-13.8-6.5-13.8"/>
			<path class="st16" d="M171.4,604.9c-0.7,0,1,19.5,1,19.5"/>
			<path class="st16" d="M180.8,610.8c1.3,3,2.9,5.9,4.7,8.6"/>
			<line class="st16" x1="185.5" y1="611.7" x2="178.6" y2="602.2"/>
			<path class="st15" d="M220.5,612.1c-1.3,4.5-6.8,29.8,2.6,23.1c4.5,6.7,7.9-0.8,7.1-2.6c3.7,7.5,5.7,4.1,5.1-2.1
				c6.6,7.8,2.2-5.2,0.1-7.2c8.8,5.7-6.1-12.9-6.1-12.9"/>
			<path class="st15" d="M218.2,586.3l0.6-0.1c0.9-0.2,1.8,0.4,2,1.3l2.1,9.2c0.2,0.9-0.4,1.8-1.2,2c0,0,0,0,0,0l0,0l-0.6,0.1
				c-0.9,0.2-1.8-0.4-2-1.2c0,0,0,0,0,0l0,0l-2.1-9.3C216.8,587.4,217.4,586.5,218.2,586.3z"/>
			<path class="st16" d="M222.2,616.9c-0.7,0,0.9,18.3,0.9,18.3"/>
			<path class="st16" d="M225.7,618.9c-0.2,2.1,4.8,14.3,4.8,14.3"/>
			<path class="st16" d="M231,622.4c1.2,2.8,2.7,5.5,4.4,8.1"/>
			<line class="st16" x1="235.4" y1="623.2" x2="228.9" y2="614.4"/>
			<path class="st17" d="M234.4,604c0.3,5.6-3.9,10.4-9.6,10.9c-5.4,0.7-10.5-3.1-11.2-8.5c0,0,0,0,0,0l-0.1-0.2
				c-0.3-5.6,3.9-10.4,9.5-10.8c5.5-0.7,10.5,3.1,11.2,8.6L234.4,604z"/>
			<path class="st15" d="M272.5,621c-1.3,4.6-6.9,30.1,2.7,23.2c4.6,6.9,8-0.8,7.1-2.6c3.7,7.5,5.7,4.2,5.2-2.1
				c6.7,7.9,2.2-5.3,0.2-7.3c8.8,5.8-6.1-13.1-6.1-13.1"/>
			<path class="st15" d="M271.1,606.3l-2.1-9.3c-0.2-0.9,0.4-1.8,1.3-2l0.6-0.1c0.9-0.2,1.8,0.4,2,1.3l2.1,9.3
				c0.2,0.9-0.4,1.8-1.3,2l-0.6,0.1C272.2,607.7,271.3,607.2,271.1,606.3z"/>
			<path class="st16" d="M274.2,625.8c-0.7,0,1,18.6,1,18.6"/>
			<path class="st16" d="M277.8,627.9c-0.2,2.2,4.8,14.5,4.8,14.5"/>
			<path class="st16" d="M283.1,631.4c1.2,2.8,2.7,5.6,4.5,8.1"/>
			<line class="st16" x1="287.5" y1="632.2" x2="281" y2="623.3"/>
			<path class="st17" d="M286.5,612.8c0.3,5.7-4,10.5-9.7,10.9c-5.5,0.7-10.6-3.2-11.3-8.7l-0.1-0.1c-0.3-5.6,4-10.5,9.6-10.9
				c5.5-0.7,10.6,3.2,11.3,8.7L286.5,612.8z"/>
			<path class="st15" d="M313.7,622.5c-1.2,4.4-6.5,28.6,2.6,22.1c4.4,6.5,7.6-0.7,6.8-2.5c3.5,7.2,5.4,4,4.9-2
				c6.4,7.5,2.1-5,0.1-6.9c8.4,5.5-5.9-12.4-5.9-12.4"/>
			<path class="st15" d="M312.4,608.5l-2-8.9c-0.2-0.9,0.3-1.7,1.2-1.9l0.6-0.1c0.9-0.2,1.7,0.3,1.9,1.2l2,8.9
				c0.2,0.9-0.3,1.7-1.2,1.9l-0.6,0.1C313.4,609.9,312.6,609.3,312.4,608.5z"/>
			<path class="st16" d="M315.3,627.1c-0.6,0,0.9,17.6,0.9,17.6"/>
			<path class="st16" d="M318.7,629.1c-0.2,2,4.6,13.7,4.6,13.7"/>
			<path class="st16" d="M323.7,632.5c1.2,2.7,2.6,5.3,4.2,7.7"/>
			<line class="st16" x1="328" y1="633.2" x2="321.8" y2="624.7"/>
			<path class="st17" d="M327,614.7c0.3,5.4-3.8,10-9.1,10.4c-5.3,0.7-10.1-3-10.8-8.3l-0.1-0.1c-0.3-5.4,3.7-10,9.1-10.5
				c5.2-0.7,10.1,3,10.8,8.2c0,0,0,0,0,0L327,614.7z"/>
			<path class="st15" d="M354.8,622.4c-1.4,5-7.5,32.9,2.9,25.5c5,7.5,8.7-0.9,7.8-2.9c4,8.3,6.3,4.6,5.6-2.3c7.4,8.7,2.4-5.8,0.1-8
				c9.7,6.3-6.7-14.3-6.7-14.3"/>
			<path class="st15" d="M353.3,606.2l-2.4-10.2c-0.2-1,0.4-2,1.4-2.2l0.7-0.2c1-0.2,2,0.4,2.2,1.4l2.4,10.2c0.2,1-0.4,2-1.4,2.2
				l-0.7,0.2C354.5,607.8,353.5,607.2,353.3,606.2z"/>
			<path class="st16" d="M356.7,627.6c-0.7,0,1.1,20.2,1.1,20.2"/>
			<path class="st16" d="M360.6,629.9c-0.2,2.4,5.3,15.9,5.3,15.9"/>
			<path class="st16" d="M366.3,633.7c1.4,3.1,3,6.1,4.9,8.9"/>
			<line class="st16" x1="371.3" y1="634.6" x2="364.1" y2="624.8"/>
			<path class="st17" d="M370.2,613.3c0.3,6.2-4.3,11.5-10.5,12c-6,0.8-11.6-3.4-12.4-9.5c0-0.1,0-0.2,0-0.2
				c-0.4-6.2,4.3-11.5,10.4-12c6-0.8,11.6,3.5,12.4,9.5c0,0,0,0,0,0L370.2,613.3z"/>
			<path class="st15" d="M399.1,616.3c-1.4,4.9-7.4,32.2,2.9,24.9c5,7.3,8.5-0.9,7.7-2.8c3.9,8.1,6.1,4.5,5.6-2.3
				c7.2,8.5,2.4-5.7,0.1-7.8c9.5,6.2-6.6-14-6.6-14"/>
			<path class="st15" d="M397.7,600.6l-2.3-10c-0.2-1,0.4-1.9,1.4-2.2l0.7-0.1c1-0.2,1.9,0.4,2.2,1.4l2.3,10c0.2,1-0.4,1.9-1.4,2.2
				l-0.7,0.2C398.8,602.2,397.9,601.5,397.7,600.6z"/>
			<path class="st16" d="M401,621.5c-0.7,0,1,19.8,1,19.8"/>
			<path class="st16" d="M404.8,623.7c-0.2,2.3,5.2,15.5,5.2,15.5"/>
			<path class="st16" d="M410.4,627.5c1.3,3,2.9,6,4.8,8.7"/>
			<line class="st16" x1="415.2" y1="628.4" x2="408.2" y2="618.8"/>
			
				<ellipse transform="matrix(0.9747 -0.2234 0.2234 0.9747 -125.7833 105.3755)" class="st17" cx="402.9" cy="608.7" rx="11.3" ry="10.7"/>
			<path class="st15" d="M431.8,609c-1.3,4.6-6.9,30.2,2.7,23.4c4.6,6.9,8-0.8,7.2-2.6c3.7,7.6,5.8,4.2,5.2-2.1
				c6.7,8,2.2-5.3,0.2-7.3c8.9,5.8-6.2-13.1-6.2-13.1"/>
			<path class="st15" d="M430.4,594.1l-2.1-9.4c-0.2-0.9,0.4-1.8,1.3-2l0.6-0.1c0.9-0.2,1.8,0.4,2,1.3l2.1,9.4
				c0.2,0.9-0.4,1.8-1.3,2l-0.6,0.1C431.5,595.6,430.6,595,430.4,594.1z"/>
			<path class="st16" d="M433.5,613.7c-0.7,0,0.9,18.6,0.9,18.6"/>
			<path class="st16" d="M437.1,615.9c-0.2,2.2,4.9,14.5,4.9,14.5"/>
			<path class="st16" d="M442.4,619.4c1.3,2.8,2.8,5.6,4.5,8.2"/>
			<line class="st16" x1="446.9" y1="620.2" x2="440.3" y2="611.2"/>
			
				<ellipse transform="matrix(0.9747 -0.2234 0.2234 0.9747 -123.4113 112.4397)" class="st17" cx="435.3" cy="601.7" rx="10.6" ry="10"/>
			<path class="st18" d="M368.2,261.2c0.4,4-20.3,2.1-41.4,3.9c-21.1,1.8-35.1,6.9-35.4,2.8s16.5-8.8,37.8-10.7
				C350.3,255.4,367.6,257,368.2,261.2z"/>
		</g>
	</g>
</g>
</svg>
